<svg id="3752660003" display="block" role="presentation" viewBox="0 0 24 24" xmlns="http://www.w3.org/2000/svg"><path d="M 0 5.625 C 0 2.518 2.518 0 5.625 0 C 8.732 0 11.25 2.518 11.25 5.625 C 11.25 8.732 8.732 11.25 5.625 11.25 C 2.518 11.25 0 8.732 0 5.625 Z" fill-opacity="var(--1m6trwb, 0)" fill="var(--21h8s6, rgb(0, 0, 0))" height="11.25px" id="FvOEQsPdS" transform="translate(4.5 3.75)" width="11.25px"/><path d="M 0 5.625 C 0 2.518 2.518 0 5.625 0 C 8.732 0 11.25 2.518 11.25 5.625 C 11.25 8.732 8.732 11.25 5.625 11.25 C 2.518 11.25 0 8.732 0 5.625 Z" fill="transparent" height="11.25px" id="WAzt5bQVL" stroke-dasharray="" stroke-linecap="round" stroke-linejoin="round" stroke-width="var(--pgex8v, 1.5)" stroke="var(--21h8s6, rgb(0, 0, 0))" transform="translate(4.5 3.75)" width="11.25px"/><path d="M 0 3.75 C 1.927 1.458 4.646 0 7.875 0 C 11.104 0 13.823 1.458 15.75 3.75" fill="transparent" height="3.75px" id="aF2lKQXzJ" stroke-dasharray="" stroke-linecap="round" stroke-linejoin="round" stroke-width="var(--pgex8v, 1.5)" stroke="var(--21h8s6, rgb(0, 0, 0))" transform="translate(2.25 15)" width="15.75px"/><path d="M 0 1.5 L 1.5 3 L 4.5 0" fill="transparent" height="3px" id="K9gYvV6pW" stroke-dasharray="" stroke-linecap="round" stroke-linejoin="round" stroke-width="var(--pgex8v, 1.5)" stroke="var(--21h8s6, rgb(0, 0, 0))" transform="translate(18.75 12)" width="4.5px"/></svg>