<svg id="1682392209" display="block" role="presentation" viewBox="0 0 24 24" xmlns="http://www.w3.org/2000/svg"><path d="M 10.5 0 C 10.988 0.649 11.251 1.438 11.25 2.25 L 11.25 3 L 3.75 3 L 3.75 2.25 C 3.749 1.438 4.012 0.649 4.5 0 L 0.75 0 C 0.336 0 0 0.336 0 0.75 L 0 16.5 C 0 16.914 0.336 17.25 0.75 17.25 L 14.25 17.25 C 14.664 17.25 15 16.914 15 16.5 L 15 0.75 C 15 0.336 14.664 0 14.25 0 Z" fill-opacity="var(--1m6trwb, 0)" fill="var(--21h8s6, rgb(0, 0, 0))" height="17.25px" id="cfOffjztF" transform="translate(4.5 3.75)" width="15px"/><path d="M 0 0 L 6 0" fill="transparent" height="1px" id="CK4Hjr5qd" stroke-dasharray="" stroke-linecap="round" stroke-linejoin="round" stroke-width="var(--pgex8v, 1.5)" stroke="var(--21h8s6, rgb(0, 0, 0))" transform="translate(9 14.25)" width="6px"/><path d="M 0 0 L 6 0" fill="transparent" height="1px" id="PkHqDMqYh" stroke-dasharray="" stroke-linecap="round" stroke-linejoin="round" stroke-width="var(--pgex8v, 1.5)" stroke="var(--21h8s6, rgb(0, 0, 0))" transform="translate(9 11.25)" width="6px"/><path d="M 10.5 0 L 14.25 0 C 14.664 0 15 0.336 15 0.75 L 15 16.5 C 15 16.914 14.664 17.25 14.25 17.25 L 0.75 17.25 C 0.336 17.25 0 16.914 0 16.5 L 0 0.75 C 0 0.336 0.336 0 0.75 0 L 4.5 0" fill="transparent" height="17.25px" id="NCgd433kM" stroke-dasharray="" stroke-linecap="round" stroke-linejoin="round" stroke-width="var(--pgex8v, 1.5)" stroke="var(--21h8s6, rgb(0, 0, 0))" transform="translate(4.5 3.75)" width="15px"/><path d="M 0 4.5 L 0 3.75 C 0 1.679 1.679 0 3.75 0 C 5.821 0 7.5 1.679 7.5 3.75 L 7.5 4.5 Z" fill="transparent" height="4.5px" id="LnZBLQhtE" stroke-dasharray="" stroke-linecap="round" stroke-linejoin="round" stroke-width="var(--pgex8v, 1.5)" stroke="var(--21h8s6, rgb(0, 0, 0))" transform="translate(8.25 2.25)" width="7.5px"/></svg>