<svg id="3581018432" display="block" role="presentation" viewBox="0 0 24 24" xmlns="http://www.w3.org/2000/svg"><path d="M 0.75 4.5 C 0.336 4.5 0 4.164 0 3.75 L 0 0.75 C 0 0.336 0.336 0 0.75 0 L 3.75 0 C 4.164 0 4.5 0.336 4.5 0.75 L 4.5 3.75 C 4.5 4.164 4.164 4.5 3.75 4.5 Z" fill-opacity="var(--1m6trwb, 0)" fill="var(--21h8s6, rgb(0, 0, 0))" height="4.5px" id="TYyewX54X" transform="translate(9.75 3)" width="4.5px"/><path d="M 0.75 4.5 C 0.336 4.5 0 4.164 0 3.75 L 0 0.75 C 0 0.336 0.336 0 0.75 0 L 3.75 0 C 4.164 0 4.5 0.336 4.5 0.75 L 4.5 3.75 C 4.5 4.164 4.164 4.5 3.75 4.5 Z" fill-opacity="var(--1m6trwb, 0)" fill="var(--21h8s6, rgb(0, 0, 0))" height="4.5px" id="tSysXh4tU" transform="translate(3.75 15.75)" width="4.5px"/><path d="M 0.75 4.5 C 0.336 4.5 0 4.164 0 3.75 L 0 0.75 C 0 0.336 0.336 0 0.75 0 L 3.75 0 C 4.164 0 4.5 0.336 4.5 0.75 L 4.5 3.75 C 4.5 4.164 4.164 4.5 3.75 4.5 Z" fill-opacity="var(--1m6trwb, 0)" fill="var(--21h8s6, rgb(0, 0, 0))" height="4.5px" id="oxj48obc5" transform="translate(15.75 15.75)" width="4.5px"/><path d="M 0.75 4.5 C 0.336 4.5 0 4.164 0 3.75 L 0 0.75 C 0 0.336 0.336 0 0.75 0 L 3.75 0 C 4.164 0 4.5 0.336 4.5 0.75 L 4.5 3.75 C 4.5 4.164 4.164 4.5 3.75 4.5 Z" fill="transparent" height="4.5px" id="FKyYNuu8A" stroke-dasharray="" stroke-linecap="round" stroke-linejoin="round" stroke-width="var(--pgex8v, 1.5)" stroke="var(--21h8s6, rgb(0, 0, 0))" transform="translate(9.75 3)" width="4.5px"/><path d="M 0.75 4.5 C 0.336 4.5 0 4.164 0 3.75 L 0 0.75 C 0 0.336 0.336 0 0.75 0 L 3.75 0 C 4.164 0 4.5 0.336 4.5 0.75 L 4.5 3.75 C 4.5 4.164 4.164 4.5 3.75 4.5 Z" fill="transparent" height="4.5px" id="v8tBiAo3p" stroke-dasharray="" stroke-linecap="round" stroke-linejoin="round" stroke-width="var(--pgex8v, 1.5)" stroke="var(--21h8s6, rgb(0, 0, 0))" transform="translate(3.75 15.75)" width="4.5px"/><path d="M 0.75 4.5 C 0.336 4.5 0 4.164 0 3.75 L 0 0.75 C 0 0.336 0.336 0 0.75 0 L 3.75 0 C 4.164 0 4.5 0.336 4.5 0.75 L 4.5 3.75 C 4.5 4.164 4.164 4.5 3.75 4.5 Z" fill="transparent" height="4.5px" id="UuKHO8YaS" stroke-dasharray="" stroke-linecap="round" stroke-linejoin="round" stroke-width="var(--pgex8v, 1.5)" stroke="var(--21h8s6, rgb(0, 0, 0))" transform="translate(15.75 15.75)" width="4.5px"/><path d="M 0 0 L 0 3.75" fill="transparent" height="3.75px" id="hdp8vL8lr" stroke-dasharray="" stroke-linecap="round" stroke-linejoin="round" stroke-width="var(--pgex8v, 1.5)" stroke="var(--21h8s6, rgb(0, 0, 0))" transform="translate(12 7.5)" width="1px"/><path d="M 0 0 L 0 4.5" fill="transparent" height="4.5px" id="Y_F3wwsnK" stroke-dasharray="" stroke-linecap="round" stroke-linejoin="round" stroke-width="var(--pgex8v, 1.5)" stroke="var(--21h8s6, rgb(0, 0, 0))" transform="translate(18 11.25)" width="1px"/><path d="M 0 4.5 L 0 0" fill="transparent" height="4.5px" id="oN5PzTx6l" stroke-dasharray="" stroke-linecap="round" stroke-linejoin="round" stroke-width="var(--pgex8v, 1.5)" stroke="var(--21h8s6, rgb(0, 0, 0))" transform="translate(6 11.25)" width="1px"/><path d="M 0 0 L 19.5 0" fill="transparent" height="1px" id="lfAxdpWNJ" stroke-dasharray="" stroke-linecap="round" stroke-linejoin="round" stroke-width="var(--pgex8v, 1.5)" stroke="var(--21h8s6, rgb(0, 0, 0))" transform="translate(2.25 11.25)" width="19.5px"/></svg>